<svg xmlns="http://www.w3.org/2000/svg" xmlns:xlink="http://www.w3.org/1999/xlink" viewBox="0 0 2551.18 2069.29"><defs><style>.cls-1,.cls-18{fill:none;}.cls-1{stroke:#fff;stroke-width:0.13px;opacity:0.35;}.cls-1,.cls-20,.cls-22,.cls-23,.cls-24,.cls-29,.cls-30,.cls-31,.cls-32,.cls-33,.cls-34,.cls-38,.cls-39,.cls-5{stroke-miterlimit:10;}.cls-2{fill:#232323;}.cls-3{fill:#252525;}.cls-4{fill:#2a2a2a;}.cls-5{fill:#514c53;stroke:#b3a6a4;stroke-width:0.24px;}.cls-6{fill:#2a2c30;}.cls-7{fill:#1f1f20;}.cls-8{fill:#383838;}.cls-9{fill:gray;}.cls-10{fill:url(#linear-gradient);}.cls-11{fill:url(#linear-gradient-2);}.cls-12{fill:url(#linear-gradient-3);}.cls-13{fill:url(#linear-gradient-4);}.cls-14{fill:#848d92;}.cls-15{fill:#443546;}.cls-16{fill:#433b42;}.cls-17{fill:#6e7476;}.cls-19{fill:#292536;}.cls-20{fill:#2e2130;stroke:#d0c1c7;stroke-width:0.27px;}.cls-21{fill:#4f4c57;}.cls-22,.cls-23,.cls-24,.cls-29,.cls-30,.cls-31,.cls-32,.cls-33,.cls-34{stroke:#d2d0c6;stroke-width:0.21px;}.cls-22{fill:url(#linear-gradient-5);}.cls-23{fill:#a1acaa;}.cls-24{fill:#6c7f7c;}.cls-25{fill:#3f3f40;}.cls-26{fill:#63665e;}.cls-27{fill:#8a8b85;}.cls-28{fill:#222;}.cls-29{fill:url(#linear-gradient-6);}.cls-30{fill:url(#linear-gradient-7);}.cls-31{fill:url(#linear-gradient-8);}.cls-32{fill:url(#linear-gradient-9);}.cls-33{fill:url(#linear-gradient-10);}.cls-34{fill:url(#linear-gradient-11);}.cls-35{fill:#272727;}.cls-36{fill:#252526;}.cls-37{fill:#333;}.cls-38{fill:#333537;stroke:#707074;}.cls-39{fill:#191919;stroke:#383838;}</style><linearGradient id="linear-gradient" x1="1145.44" y1="966.33" x2="1998.18" y2="966.33" gradientUnits="userSpaceOnUse"><stop offset="0" stop-color="#747879"/><stop offset="0.99" stop-color="#424546"/></linearGradient><linearGradient id="linear-gradient-2" x1="788.04" y1="1229.03" x2="1223.56" y2="1229.03" xlink:href="#linear-gradient"/><linearGradient id="linear-gradient-3" x1="1571.81" y1="1307.42" x2="2178.3" y2="1307.42" gradientUnits="userSpaceOnUse"><stop offset="0" stop-color="#2e2130"/><stop offset="0.99" stop-color="#4f4e57"/></linearGradient><linearGradient id="linear-gradient-4" x1="1198.65" y1="533.92" x2="1824.44" y2="533.92" xlink:href="#linear-gradient"/><linearGradient id="linear-gradient-5" x1="1193.62" y1="641.69" x2="1335.63" y2="641.69" gradientUnits="userSpaceOnUse"><stop offset="0" stop-color="#4f4453"/><stop offset="1" stop-color="#544d65"/></linearGradient><linearGradient id="linear-gradient-6" x1="1325.56" y1="920.92" x2="1370.58" y2="920.92" gradientUnits="userSpaceOnUse"><stop offset="0" stop-color="#61798b"/><stop offset="1" stop-color="#544d65"/></linearGradient><linearGradient id="linear-gradient-7" x1="1449.44" y1="881.39" x2="1519.27" y2="881.39" xlink:href="#linear-gradient-6"/><linearGradient id="linear-gradient-8" x1="1585.41" y1="828.22" x2="1675.05" y2="828.22" xlink:href="#linear-gradient-6"/><linearGradient id="linear-gradient-9" x1="1738.5" y1="743.41" x2="1821.09" y2="743.41" xlink:href="#linear-gradient-6"/><linearGradient id="linear-gradient-10" x1="1066.38" y1="1170.37" x2="1226.6" y2="1170.37" xlink:href="#linear-gradient-6"/><linearGradient id="linear-gradient-11" x1="1325.56" y1="675.68" x2="1824.44" y2="675.68" xlink:href="#linear-gradient-6"/></defs><title>map </title><g id="Layer_2" data-name="Layer 2"><g id="Layer_6" data-name="Layer 6"><line class="cls-1" x1="1952.52" y1="367.23" x2="2206.94" y2="237.34"/><line class="cls-1" x1="1968.13" y1="224.05" x2="2136.53" y2="582.26"/><line class="cls-1" x1="1809" y1="485.07" x2="2288.58" y2="249.9"/><line class="cls-1" x1="2033.39" y1="556.08" x2="2343.69" y2="414.06"/><line class="cls-1" x1="2030.58" y1="884.92" x2="2317.15" y2="747.44"/><line class="cls-1" x1="845.29" y1="468.82" x2="1406.13" y2="186.29"/><line class="cls-1" x1="1241.6" y1="402.02" x2="1352.75" y2="267.45"/><line class="cls-1" x1="1352.75" y1="267.45" x2="1518.43" y2="199.54"/><line class="cls-1" x1="1086.41" y1="561.62" x2="1208.15" y2="935.84"/><line class="cls-1" x1="1007.47" y1="888.65" x2="1300.46" y2="743.41"/><line class="cls-1" x1="721.13" y1="1522.27" x2="892.27" y2="1442.17"/><line class="cls-1" x1="994.14" y1="1751.7" x2="1066.38" y2="1685.32"/><line class="cls-1" x1="1472.2" y1="1558.24" x2="1684.45" y2="1774.15"/></g><g id="Layer_5" data-name="Layer 5"><path class="cls-2" d="M2387.76,1500.08c-27.61-58.68-55.27-117.43-87.29-173.82-2.83-5-5.72-10-9.58-14.19s-8.61-7.55-13.31-10.84c-12.85-9-25.8-18-39.29-26-6.31-6.21-14.23-10.85-21.18-16.46-8.62-7-15.79-15.51-22.49-24.33s-12.75-17.64-18.74-26.72c-24.07-36.42-45.36-74.57-66.64-112.68l-18-32.2c-20.1-36-40.23-72.09-56.43-110-4.81,10.41-9.73,20.34-14.54,30.75,26.48,28.45,32.48,69.59,44.59,106.52a303.6,303.6,0,0,0,47.65,90.21c12,15.64,25.54,30.07,39,44.47l20.61,22c1,5.12,8.71,13.4,10.8,16.08a155.5,155.5,0,0,0,34.08,32.3c10.31,7.15,21.46,13,31.53,20.51,19.08,14.17,33.65,33.66,45.41,54.31s21,42.64,31.2,64.1c11.8,24.73,25,48.78,38.14,72.81a8.27,8.27,0,0,0,3,3.58c1.86,1,4.14.45,6.17-.12l13.11-3.7a4.88,4.88,0,0,0,2.5-1.28C2389.3,1503.93,2388.55,1501.77,2387.76,1500.08Z"/><path class="cls-3" d="M2203.8,1125.62c10.27,36.18,23,73.68,50.74,99.08a79.81,79.81,0,0,0,18.05,12.75c13.6,6.8,29.14,8.39,44.32,9.31a494.29,494.29,0,0,0,85.07-1.71c-5.57,5.58-11.55,11.4-19.21,13.28-3.95,1-8.08.8-12.14.63l-80.58-3.36c-7.42-.31-14.91-.63-22.08-2.52-13.14-3.45-24.5-12-33.34-22.33s-15.39-22.35-21.53-34.47c-24.62-48.57-44-102.46-37.5-156.52a11.54,11.54,0,0,1,1.61-5.36,6.13,6.13,0,0,1,8-1.57c4.28,2.72,2.76,13.42,3.12,17.81.7,8.38,1.87,16.72,3.36,25C2194.71,1092.53,2199.11,1109.13,2203.8,1125.62Z"/><polygon class="cls-3" points="2266.81 1044.4 2288.15 1016.96 2395.39 1237.78 2368.83 1247.48 2266.81 1044.4"/><path class="cls-4" d="M1993.44,676.58A279.61,279.61,0,0,1,1977,633.21c-11.27-40.66,10.8-70.46,35-97.24,53.62-59.24,141.55-89.14,221.14-82.06,14.48,1.28,29.24,3.93,41.69,11.44,14.19,8.56,24.09,22.65,32.42,37,36.31,62.55,60.22,207,60.22,207l18.59-7.75s-20-129.6-56-197.29c-7-13.2-15.49-27.69-25.51-38.78-23.47-26-62.8-36.87-97.79-37s-69.21,10.24-101.76,23.09c-35.23,13.92-69.82,31.17-97.57,57a197.78,197.78,0,0,0-42.63,57.23c-6.4,13-11.42,26.9-12.19,41.35-1.06,19.88,5.93,39.28,14,57.47a456,456,0,0,0,41.31,73.7c14.92,21.63,58.17,78,58.17,78l22.45-1.45s-30.1-39.48-39.46-51.87C2028.51,735.77,2008.26,707.38,1993.44,676.58Z"/></g><g id="Layer_13" data-name="Layer 13"><polygon class="cls-5" points="1639.12 1420.23 1623.68 1382.63 1631.74 1375.24 1643.82 1382.63 1767.37 1324.21 1783.65 1343.68 1751.93 1349.39 1731.78 1362.48 1651.21 1420.23 1641.81 1425.6 1639.12 1420.23"/><polyline class="cls-5" points="1863.39 1299.45 1936.6 1264.53 1859.22 1291.04 1863.39 1299.45"/><polyline class="cls-5" points="1948.86 1260.33 1957.39 1275.87 1980.22 1269.82 2088.32 1223.62 2129.28 1202.68 2118.54 1177.5"/><polyline class="cls-5" points="2118.54 1177.5 2066.7 1172.87 2075.56 1187.24 1992.31 1222.15 1998.18 1234.91 2000.03 1245.32 2095.37 1202.68 2092.01 1188.58 1966.52 1251.69 1948.86 1260.33"/><polygon class="cls-6" points="1021.91 930.05 914.63 622.55 629.6 739.46 758.23 1019.7 1021.91 930.05"/><polyline class="cls-7" points="981.63 1547.61 1260.09 1397.4 1411.5 1708.28 1132.18 1833.79 981.63 1547.61"/><path class="cls-8" d="M1674,243.85c-57.46,24.91-336.77,166.89-378.7,187.84-12,6-225.65,107.22-274.62,131.94-11.17,5.64-71.49,29.58-60.43,48.85,8.63,15,188.11-84.34,212.85-95.35,15.13-6.73,29.09-16.32,45.63-17.11,9.15-.43,18.37,1,27.43-.24a47.27,47.27,0,0,0,35.64-26.2,31.27,31.27,0,0,0,2.27-6.74c10.39-5.25,20.68-12.13,28.33-16,17.59-8.95,35.07-18.12,52.51-27.36,69-36.55,137.48-74.39,209.72-104.25,37.16-15.36,76.28-29.21,105.7-56.63,3.64-3.4,7.22-7.17,8.73-11.92S1679,241.7,1674,243.85Z"/><path class="cls-8" d="M701.36,1315.53c-8-19.44-42-78.09-48.05-87.89-14.76-23.8-34.91-67.69-70.26-141.79-23.65-49.59-59.22-112.7-85.61-192.37-41.29-124.67-81.62-236.65-124.89-359.56-11.78-33.46-76.89-228.28-76.89-228.28L268,311.87s47.68,146.54,61.53,184.38c81.31,222.2,135.57,411.65,230.39,606C613,1211,671.41,1319.37,684.63,1350.82c12.72,30.29,18.69,68.44,33.38,97.83,26.19,52.37,51.18,108.44,82.59,162.15,44.83,76.67,181,336.4,181,336.4l21.86-14.3s-86.78-161.93-103-191.17c0,0-41.23-78.19-84.83-165.6-31.91-64-70.07-134.37-86.87-183.91C712.82,1345.27,702.34,1317.89,701.36,1315.53Z"/><path class="cls-8" d="M633.65,1076.52C589,980.7,345.37,294.8,345.37,294.8l-26,3.72S496.91,793.89,520.9,867.42c49.56,152,230.36,493.41,262.61,551.34,82.37,147.9,278.67,487.93,278.67,487.93l24.15-13.38S698.09,1214.76,633.65,1076.52Z"/><path class="cls-8" d="M1011.68,710.92c-5.37-15.7-12-30.92-16.78-46.81L966.61,570c5.43-3.53-15.16-1.71-17.06,24.64-1.28,17.67,16.06,61.73,17.15,65.33-10.25-7.5-20.75-15.14-32.9-18.86-5.06-1.55-41.19-12.7-43-4.46-1.58,7.21,22.37,15.47,33.9,19.8,22.2,8.34,40.68,20.11,53.29,40.58,15.77,25.6,21.55,55.87,29.08,85a656.78,656.78,0,0,0,20.3,64.54c6.94,18.64,14.86,37.6,14.53,57.49-.4,24.32-13.35,47.08-30.52,64.31s-57.89,36.64-83.92,44.24c-24.17,7-113.57,10.29-130.93,4.28-26.8-9.28-48.73-22.44-64.76-45.83s-33-46.52-42-73.42c-10.65-31.86-12.79-61.3-10-94.78,4.84-56.93,56.91-91.2,107.45-117.84l-69.64,23.15c-17.2,8.3-26.43,11.77-37.81,27.11-17.74,23.93-29.55,66.35-25,95.78,9.3,60.33,30.12,118.26,68.94,165.36a136.3,136.3,0,0,0,58.76,41.49,150,150,0,0,0,60.31,9.19c8.6-.41,6.4-1.09,9.37-.27,10.94,6.15-24.31-1.74-46.84,36.31-2.12,3.57-14,28.82-13.56,33s13.92-13.17,18-14c2.13-.43,3,3.37,4.39,1.7,5.83-6.89,7-13.39,12.37-20.62,12.12-16.23,37.27-25.79,57.36-28.42,23.71-3.11,50.91-3.11,71-1.64-3.89-2.45-10.14-6.75-16.21-11.42a51.72,51.72,0,0,0,5.51-1.9c17.72-7.29,130.23-56.6,126.59-133.88C1068.52,857.24,1041.54,798.3,1011.68,710.92Z"/><path class="cls-8" d="M1236.31,356c-9.48-23.4-24.38-46.39-42.69-63.78-33-31.34-91.39-28.67-134.86-15.25-21.34,6.59-41.3,16.91-60.07,28.91-16.53,10.57-45.89,31.27-60.08,49.9-9.48,12.45-20.87,28.3-23.14,31.29-11.54,15.21-7.74,50.46-5.2,68,3.4,23.53,13.21,47,31.89,61.69,8,6.26,17.5,10.21,27.2,13.12,32.56,9.75,67.79,8.3,100.72-.11s63.8-23.51,93.07-40.77c22.06-13,46.51-27.89,60.68-49.2C1236.22,421.12,1252.37,395.6,1236.31,356ZM1206,425c-15.59,25.84-38.91,37.78-71.17,56.52-44,25.52-226.62,76.2-205.44-74.27.7-5,33.59-43.14,39.09-48.11,16-14.44,38.09-32.85,52.87-42.8,20.17-13.58,41.08-19.58,65-23.68,18.47-3.16,37.61-4.29,55.83.1,40.48,9.75,70.46,47.07,78.64,88C1222.17,398.31,1215.09,410,1206,425Z"/><path class="cls-8" d="M586.3,747.2c-9.9,10-14.13-15.5-13.1-1.44l-6.71-10.51c-5.81,11.75-4.23,25.46-5.37,39.38-3.53,42.81,17.28,99.85,31.28,140.1C626,1011.34,662,1106,712.76,1194.82c14.11,24.66,29.1,49.62,34.28,77.55,5.55,30,2.4,67.37,28.16,83.7C797,1309.69,779.53,1256,752,1212.75,680.19,1099.94,558.67,817.85,586.3,747.2Z"/><path class="cls-8" d="M886.51,497.81c-21.37-92.63-67.7-277-67.7-277l-20.65-.53s14.52,40.44,20.39,61.33Q838,350.63,855,420.3q9.72,39.65,18.68,79.45c1.89,8.44,3.78,17,3.14,25.64-1.32,17.88-13.5,33.52-28.36,43.55s-32.31,15.39-49.41,20.78c-50.46,15.91-99.41,31.52-146.31,50.45-18.81,7.6-43.19,21.09-57.2,35.76s-28.11,41.29-27.4,61.22c8.39,4.46,12.48,11,14.6-1.9,4-24.57,18.42-54.28,53.88-70.9C678.2,644.88,722.2,631.54,767.59,619c26.18-7.21,60.21-19.52,80.57-29.71C872.44,577.15,890,555,890.78,527.87,891.07,517.72,888.79,507.7,886.51,497.81Z"/><path class="cls-8" d="M918.16,512.43c2.08,7.77,4.16,15.62,4.41,23.65.69,22.12-12.85,42.74-30.41,56.2s-38.24,23.93-59.11,31.28c-51.08,18-102.16,35.38-153.25,53.38-27,9.51-58,20.18-66.43,47.55-1.54,5-2.31,15.42-7.43,14.28-2-.45-9.32,1.75-10.37,0-4.54-7.62.85-25.26,5.65-32.72s13.69-16.56,21.33-21.06c33.51-19.72,68.53-29,105.25-41.79,48.6-16.89,89.62-26.39,129.86-49.26,18-10.24,36.75-22.81,43.56-42.38,5.89-16.91,1.59-35.48-2.75-52.85Q868.85,380,839.23,261.32c-1.94-7.77-11.72-41.07-11.72-41.07h10.58s16.83,55.16,21.78,73.72l37.24,139.57Z"/><path class="cls-8" d="M1011.87,1634.08q-10.82-20.43-21.83-40.74l-36.94-68.52-65.54-121.57c-10.93-20.26-23-40.54-33.36-61.08-16.35-32.36-80.84-160.3-104.64-218.56-19.88-48.66-35.35-99.12-57.33-146.87-11.18-24.27-24-47.76-35-72.11C632.45,849.9,616.89,791,587.16,738.77a28,28,0,0,0-7.45,23.69l-9.25-18.88Q699.28,1038.65,834.27,1331c.16-.14,36.33,69.13,45.48,87,65.16,127.23,141.22,255.82,202.58,385,6.94,14.62,19.8,26.37,35.35,30.84C1087.89,1766.08,1046.49,1699.45,1011.87,1634.08Z"/><path class="cls-8" d="M809.16,1212.64a8.48,8.48,0,0,1,1.1,4.75c-.49,3.1-4.38,4.68-7.4,3.83s-5.28-3.32-7.22-5.79c-7.1-9-12.34-19.39-17.37-29.73-41.19-84.7-71.67-174.19-110.47-260-19-42.1-40.08-83.28-58-125.89-3.47-8.24-25.47-57.71-14.24-61C607.45,735.25,622.24,787.2,626,796Q684,930.33,743.11,1064.13,776,1138.47,809.16,1212.64Z"/><path class="cls-8" d="M1307.43,1319.51l5.54-32.9-263,157.45a218.49,218.49,0,0,1,20.66-22.14c11.53-10.7,24.65-20.77,30.76-35.27-34.13,21.57-70.12,45.4-89.28,80.07l-35.69,21.37q-55.2-110.62-110.32-221.29c-25.07-50.39-50.17-100.91-69.79-153.67-5.2-14-10.17-28.4-19.38-40.15-5.28-6.74-16.28-8.63-22.36-1-5.26,6.6-1.23,12.5,1.88,19.42,9,20,18.69,39.83,28,59.74q28.29,60.28,56.59,120.58C874.66,1343.3,908.29,1415,946.9,1484c5.62,10.06,32.93,59.89,34.73,63.66q16.05,33.51,32.25,67c31.23,64.85,62.52,129.8,99.47,191.57,7.78-8.33,3.63-21.75-1.15-32.08-31.5-68-72.92-131.28-101.38-200.62-2.69-6.56-5.29-13.17-8-19.74,4,7.86,26.52,50.85,33.59,64.84q21.22,42,42.63,83.87l25.78,50.59q8.49,16.68,17,33.36c2.78,5.47,5.67,11.07,10.19,15.22s11.11,6.62,16.92,4.64q-18.8-31-36.93-62.38c-21.15-36.62-38.61-74.88-58.39-112.26-9.79-18.52-19.78-38.93-27.86-58.25-20.15-48.18-15.45-66.64-5.9-80.7Zm-307.32,219.4c-1.22-.81-10.13-23.61-11.94-27.22l10.09-6.06C996.18,1517,996.09,1528.56,1000.11,1538.91Z"/><polygon class="cls-8" points="1117.68 1863.38 1459.51 1695.18 1446.42 1673.03 1148.94 1806.21 1128.11 1771.39 1086.33 1806.91 1117.68 1863.38"/><path class="cls-8" d="M526.25,666.54c6.84,16.2,18.55,34.33,31.55,46.15,16.46,15,34.46,17.92,56.69,16.78C643,728,670.66,720,697.71,711a1138.57,1138.57,0,0,0,125.48-50.25c45.59-21.47,92.85-49.26,112.63-95.62,14.4-33.75,14.39-73.17,3.4-108.19-28.14-89.64-88-238.47-88-238.47l35.24-8.18s10.4,30.83,17.12,49.72c21.15,59.42,44.42,116.78,62,177.65,16.44,56.8,27.48,123.13-7.45,170.85-18.41,25.16-48.47,40.18-76.24,54.37s-61.12,26.71-94.65,40.28c-52,21.07-95.68,34.62-150.09,48.5-18.59,4.75-44.21,6-62.56.4-17-5.17-32.81-13.75-43.7-27.75C502.7,688,484.37,631.88,467.78,584.4c-28.19-80.7-101-289.6-101-289.6l24.68-5.62s40.57,121.49,54,158C472.37,520.31,499.18,602.41,526.25,666.54Z"/><polyline class="cls-9" points="2193.85 1326.9 2406.22 1237.78 2441.5 1249.87 2208.51 1355.1 2193.85 1326.9"/><polygon class="cls-10" points="1308.6 1299.45 1973.34 977.94 1998.18 928.62 1850.46 633.21 1819.58 636.55 1145.44 969.6 1308.6 1299.45"/><polyline class="cls-11" points="788.04 1114.19 950.89 1453.8 964.08 1451.54 1134.74 1382.63 1223.56 1340.33 1063.69 1004.27 788.04 1114.19"/><polyline class="cls-12" points="2030.58 1050.93 2178.3 1340.28 1721.71 1563.92 1571.81 1255.11 2030.58 1050.93"/><polyline class="cls-13" points="1198.65 499.67 1569.04 321.4 1669.18 269.54 1755.62 404.25 1824.44 553.05 1325.56 798.3 1198.65 499.67 1198.65 499.67"/><polygon class="cls-14" points="1205.7 499.67 1654.9 285.15 1687.13 249.9 1198.65 485.07 1205.7 499.67"/><polygon class="cls-15" points="1264.46 1002.59 1284.26 1047.58 1372.22 1004.27 1349.73 959.51 1264.46 1002.59"/><polygon class="cls-16" points="1349.73 959.51 1369.2 1004.27 1284.26 1047.58 1289.3 1057.31 1386.99 1011.65 1379.61 989.83 1359.8 956.93 1349.73 959.51"/><polygon class="cls-17" points="1225.85 1133.18 1392.03 1054.63 1392.03 1044.55 1404.12 1044.55 1390.02 1018.37 1377.93 1023.4 1382.97 1037.5 1372.89 1040.52 1375.92 1046.57 1221.82 1121.1 1225.85 1133.18"/><polygon class="cls-17" points="1346.74 966.05 1365.17 1004.27 1376.25 1006.28 1356.29 961.32 1346.74 966.05"/><polygon class="cls-17" points="1286.71 1042.94 1365.17 1004.27 1376.25 1006.28 1290.09 1050.54 1286.71 1042.94"/><polygon class="cls-17" points="1291.42 1053.53 1381.96 1006.28 1392.03 1007.96 1390.02 1018.37 1295.34 1062.35 1291.42 1053.53"/><polygon class="cls-17" points="1365.17 956.93 1392.03 1007.96 1381.96 1006.28 1357.12 959.51 1365.17 956.93"/><polygon class="cls-18" points="1457.5 891.23 1476.97 935.99 1392.03 979.29 1397.07 989.03 1494.76 943.37 1487.38 921.55 1467.57 888.65 1457.5 891.23"/><polyline class="cls-19" points="889.93 1167.43 992.52 1367.52 1034.82 1352.41 1037.51 1340.33 1132.18 1308.43 1102.64 1242.29 1034.15 1267.81 1021.91 1243.64 1030.12 1238.94 1028.11 1228.87 1021.39 1225.51 1009.98 1222.82 958.28 1138.22 939.48 1138.22 887.77 1163.06 889.93 1167.43 889.93 1167.43"/><polygon class="cls-20" points="1410.16 1027.4 1499.8 985.47 1493.04 979.37 1410.16 1018.37 1410.16 1027.4"/><polygon class="cls-18" points="1383.65 947.71 1473.29 905.77 1466.53 899.67 1383.65 938.67 1383.65 947.71"/><polygon class="cls-20" points="1555.19 973.72 1538.49 973.72 1535.92 968.08 1554.19 958.94 1554.19 964.99 1651.21 916.8 1652.89 923.69 1555.19 973.72"/><polygon class="cls-20" points="1665.65 906.57 1795.4 844.8 1801.92 850.32 1693.51 906.57 1673.7 909.09 1665.65 906.57"/><polygon class="cls-20" points="1671.02 934.44 1755.62 1101.96 1742.53 1109.35 1655.96 930.05 1671.02 934.44"/><polygon class="cls-20" points="1530.01 999.23 1613.61 1172.46 1613.61 1164.41 1538.49 999.23 1530.01 999.23"/><polygon class="cls-20" points="1410.16 1070.27 1487.71 1228.87 1472.61 1224.29 1404.12 1079.8 1397.58 1079.8 1396.18 1069.37 1410.16 1070.27"/><polygon class="cls-20" points="1872.45 808.74 1968.13 763.05 1957.56 773.62 1891.25 805.85 1875.24 813.41 1872.45 808.74"/><polygon class="cls-20" points="1860.37 617.51 1933.89 773.62 1940.94 768.34 1870.94 615.5 1860.37 617.51"/><polygon class="cls-20" points="1940.94 784.7 2014.46 946.86 2004.39 976.07 2021.01 943.33 1943.46 781.24 1940.94 784.7"/><polygon class="cls-21" points="1307.43 1319.51 1318.51 1316.49 1954.03 1018.37 1998.85 989.03 2004.39 976.07 1874.47 1027.93 1723.37 1103.47 1450.45 1232.39 1303.4 1300.88 1307.43 1319.51"/><polygon class="cls-21" points="1801.92 850.32 1887.56 1041.03 1794.07 854.39 1801.92 850.32"/><polygon class="cls-18" points="1451.79 1313.47 1461.19 1340.33 1483.35 1326.9 1451.79 1313.47"/><polygon class="cls-20" points="1563.92 1253.04 1615.04 1358.42 1628.38 1363.83 1580.71 1259.69 1563.92 1253.04"/><polygon class="cls-20" points="1678.74 1199.32 1742.15 1327.42 1750.57 1323.51 1696.87 1206.04 1678.74 1199.32"/><polygon class="cls-20" points="1788.18 1147.79 1848.81 1270.06 1856.2 1266.47 1806.98 1153.33 1788.18 1147.79"/><polygon class="cls-20" points="1894.27 1101.96 1947.32 1207.58 1970.15 1194.62 1913.74 1103.14 1894.27 1101.96"/><polygon class="cls-20" points="1580.71 1259.69 2030.58 1050.93 2014.46 1042.95 1563.92 1253.04 1580.71 1259.69"/><polyline class="cls-20" points="1955.38 1258.1 1964.2 1274.06 1957.39 1275.87 1948.86 1260.33 1955.38 1258.1 1955.38 1258.1"/><polyline class="cls-20" points="921.84 1066.1 955.82 1137.07 955.82 1137.07 958.28 1133.18 966.33 1133.18 932.09 1062.35 921.84 1066.1 921.84 1066.1"/><polyline class="cls-20" points="1059.08 1337.88 1092.57 1401.43 1099.28 1397.4 1066.38 1333.61 1059.08 1337.88 1059.08 1337.88"/><polyline class="cls-20" points="877.26 1285.13 935.47 1259.69 930.57 1252.87 872 1278.57 877.26 1285.13"/><polyline class="cls-20" points="1021.91 1218.39 1145.44 1172.46 1145.44 1179.18 1027.66 1222.82 1021.91 1218.39"/><polygon class="cls-20" points="1406.13 380.83 1435.34 430.18 1477.64 530.9 1477.64 556.08 1460.63 572.19 1443.4 582.26 1461.53 562.12 1454.98 545 1466.06 523.85 1428.47 449.32 1415.2 475.5 1415.2 465.43 1428.47 449.32 1425.27 434.71 1401.1 384.36 1406.13 380.83"/><polyline class="cls-20" points="1291.42 449.32 1321.03 493.63 1341.73 551.04 1318.34 563.63 1312.97 540.97 1303.4 523.85 1286.71 531.9 1281.43 523.85 1303.4 509.75 1318.34 504.46 1291.42 449.32"/><polyline class="cls-20" points="1428.47 743.41 1396.18 664.39 1370.58 607.44 1392.03 598.38 1376.25 577.23 1370.58 584.28 1361.5 563.63 1348.07 570.18 1346.74 631.71 1352.75 642.69 1361.5 643.11 1392.03 690.53 1428.47 743.41"/><polyline class="cls-20" points="1687.13 249.9 1809 485.07 1824.44 553.05 1744.09 384.36 1687.13 249.9 1824.44 553.05"/><polyline class="cls-20" points="1428.47 743.41 1406.13 661.7 1396.18 664.39 1428.47 743.41"/><polygon class="cls-20" points="1545.46 679.96 1512.89 594.64 1477.64 551.04 1498.62 622.93 1487.71 650.75 1506.85 650.75 1545.46 679.96"/><polygon class="cls-20" points="1589.44 668.21 1569.04 622.55 1555.19 615.5 1579.37 664.39 1589.44 668.21"/><polygon class="cls-20" points="1640.8 371.76 1603.54 388.88 1630.23 454.35 1668.03 434.71 1640.8 371.76"/><polygon class="cls-20" points="1687.13 419.36 1713.06 404.25 1713.06 414.06 1692.17 428.17 1687.13 419.36"/><polygon class="cls-20" points="1526.99 331.98 1569.04 404.25 1640.8 572.19 1657.58 633.21 1594.98 493.63 1569.04 513.77 1543.11 523.85 1562.91 485.07 1554.19 485.07 1522.96 414.06 1519.27 424.14 1512.89 413.06 1522.96 363.71 1526.99 331.98"/><polygon class="cls-20" points="1342.12 419.36 1359.8 414.06 1375.92 446.29 1359.02 449.32 1342.12 419.36"/><polygon class="cls-22" points="1335.63 781.24 1198.65 485.07 1193.62 509.75 1325.56 798.3 1335.63 781.24"/><polyline class="cls-20" points="1714.65 1542.77 1719.73 1540.31 1648.36 1388 1731.78 1362.48 1751.93 1349.39 1767.2 1340.28 1777.27 1349.39 1840.82 1324.21 1830.65 1308.43 1769.22 1319.51 1694.69 1343.68 1626.2 1371.88 1674.54 1482.17 1703.67 1542.77 1714.65 1542.77"/><polyline class="cls-20" points="1863.39 1299.45 1947.32 1273.68 1958.56 1253.04 1970.15 1253.04 2002.38 1240.95 1994.39 1226.68 2075.56 1196.85 2074.89 1185.05 1988.78 1202.68 1888.06 1266.47 1812.36 1304.91 1863.39 1299.45"/><polygon class="cls-20" points="1761.33 1343.78 1827.46 1487.99 1821.88 1490.7 1751.93 1349.39 1761.33 1343.78"/><polygon class="cls-20" points="1872.08 1296.78 1937.95 1434.34 1932.21 1438.13 1863.39 1299.45 1872.08 1296.78"/><polyline class="cls-20" points="1980.22 1269.82 1990.29 1266.98 2049.71 1386.49 2037.12 1389.01 1980.22 1269.82"/><path class="cls-20" d="M2045.35,1028.77l10.07-2.35,160.48,325.34-7.39,3.34s-41.21-76.37-79.23-152.42c-43.56-87.13-84.63-175.36-83.93-173.91"/><polygon class="cls-23" points="1410.16 1018.37 1512.89 970.02 1490.73 923.69 1474.62 946.86 1485.7 971.03 1410.16 1007.29 1410.16 1018.37"/><polygon class="cls-23" points="1547.13 775.64 1613.61 910.6 1604.54 915.63 1659.94 903.55 1585.41 755.5 1547.13 775.64"/><polygon class="cls-23" points="1449.44 822.98 1506.85 941.82 1496.78 941.82 1469.58 946.86 1478.14 940.82 1425.27 835.57 1449.44 822.98"/><polygon class="cls-23" points="1530.01 971.03 1554.19 958.94 1554.19 964.99 1651.88 915.63 1659.94 903.55 1604.54 915.63 1609.58 923.69 1530.01 962.97 1530.01 971.03"/><polygon class="cls-23" points="1738.5 684.99 1804.97 816.93 1771.73 827 1784.16 849.59 1738.5 862.25 1727.42 843.12 1750.58 829.02 1692.17 707.15 1738.5 684.99"/><polygon class="cls-23" points="1821.09 641.68 1889.57 782.69 1836.19 809.88 1842.24 822.98 1946.98 773.62 1933.89 773.62 1860.37 617.51 1821.09 641.68"/><polygon class="cls-23" points="1325.56 884.92 1359.8 956.93 1342.68 956.93 1311.46 889.45 1325.56 884.92"/><polygon class="cls-23" points="1225.85 1133.18 1392.03 1054.63 1392.03 1044.55 1404.12 1044.55 1390.02 1018.37 1377.93 1023.4 1382.97 1037.5 1372.89 1040.52 1375.92 1046.57 1221.82 1121.1 1225.85 1133.18"/><polygon class="cls-23" points="1404.12 1079.8 1477.64 1234.91 1450.45 1205.7 1392.03 1079.8 1404.12 1079.8"/><polygon class="cls-23" points="1506.85 1007.29 1574.33 1153.33 1613.61 1172.46 1530.01 999.23 1506.85 1007.29"/><polygon class="cls-23" points="1620.66 941.82 1692.17 1093.9 1742.53 1109.35 1652.89 923.69 1620.66 941.82"/><polygon class="cls-23" points="1301.39 1283.25 1455.33 1210.95 1477.64 1234.91 1312.97 1308.43 1301.39 1283.25"/><polygon class="cls-23" points="1487.71 1228.87 1613.61 1172.46 1574.33 1153.33 1472.61 1200.66 1487.71 1228.87"/><polygon class="cls-23" points="1603.54 1138.22 1692.17 1093.9 1742.53 1109.35 1613.61 1167.43 1603.54 1138.22"/><polygon class="cls-23" points="1742.53 1070.74 1817.06 1033.47 1884.03 1040.52 1755.62 1101.96 1742.53 1070.74"/><polygon class="cls-23" points="1872.45 1009.3 1955.04 971.03 1968.13 946.86 1900.65 802.83 1939.37 781.24 2014.46 946.86 2004.39 976.07 1884.03 1033.47 1872.45 1009.3"/><polygon class="cls-23" points="1140.24 971.03 1149.3 976.07 1312.97 1308.43 1307.43 1319.51 1140.24 971.03"/><polygon class="cls-14" points="1311.46 893.48 1150.31 971.03 1140.24 971.03 1306.42 884.92 1311.46 893.48"/><polygon class="cls-14" points="1335.63 884.92 1326.57 876.36 1421.24 831.03 1425.27 840.1 1335.63 884.92"/><polygon class="cls-14" points="1461.53 822.98 1547.13 779.67 1543.11 773.62 1457.5 813.91 1461.53 822.98"/><polygon class="cls-14" points="1594.98 755.5 1692.17 707.15 1687.13 700.1 1589.44 747.44 1594.98 755.5"/><polygon class="cls-14" points="1756.63 673.91 1821.09 641.68 1821.09 634.63 1753.61 668.21 1756.63 673.91"/><polygon class="cls-23" points="1745.21 880.72 1817.06 1033.47 1887.89 1041.2 1794.56 854.87 1745.21 880.72"/><polygon class="cls-23" points="1269.49 1004.27 1260.09 1002.59 1342.68 956.93 1365.17 956.93 1269.49 1004.27"/><polygon class="cls-18" points="1185.74 983.18 1176.34 981.5 1258.93 935.84 1281.43 935.84 1185.74 983.18"/><polygon class="cls-23" points="1287.29 1059.66 1260.09 1002.59 1269.49 1004.27 1295.34 1062.35 1287.29 1059.66"/><polygon class="cls-23" points="1675.05 903.55 1787.87 848.39 1736.23 858.34 1668.03 889.43 1675.05 903.55"/><polygon class="cls-18" points="1506.85 1007.29 1499.8 994.53 1519.27 985.47 1523.97 996.38 1530.01 999.23 1506.85 1007.29"/><polygon class="cls-18" points="1555.19 973.72 1538.49 973.72 1535.92 968.08 1554.19 958.94 1555.19 973.72"/><polygon class="cls-18" points="1539.75 1004.27 1530.01 999.23 1547.13 989.24 1562.91 991.17 1539.75 1004.27"/><polygon class="cls-23" points="1893.1 607.44 1968.13 763.05 1946.98 773.62 1933.89 773.62 1940.94 768.34 1870.94 615.5 1893.1 607.44"/><polygon class="cls-23" points="2021.01 943.33 2028.06 922.18 1957.56 773.62 1943.46 781.24 2021.01 943.33"/><polygon class="cls-23" points="1306.42 884.92 1326.57 876.36 1335.63 884.92 1325.56 884.92 1311.46 893.48 1306.42 884.92"/><polygon class="cls-23" points="1421.24 831.03 1457.5 813.91 1460.63 820.96 1449.44 822.98 1425.27 835.57 1421.24 831.03"/><polygon class="cls-23" points="1594.98 755.5 1589.44 747.44 1543.11 773.62 1547.13 775.64 1585.41 755.5 1594.98 755.5"/><polygon class="cls-23" points="1753.61 668.21 1687.13 700.1 1692.17 707.15 1738.5 684.99 1755.62 675.93 1753.61 668.21"/><polygon class="cls-23" points="1659.27 1210.95 1708.95 1316.15 1745.21 1333.61 1678.74 1199.32 1659.27 1210.95"/><polygon class="cls-23" points="1761.33 1160.38 1821.09 1283.92 1813.28 1286.61 1863.39 1299.45 1788.18 1147.79 1761.33 1160.38"/><polygon class="cls-24" points="1745.21 1333.61 1767.37 1324.21 1782.14 1340.33 1863.39 1299.45 1813.28 1286.61 1818.4 1291.98 1742.15 1327.42 1745.21 1333.61"/><polygon class="cls-24" points="1613.61 1354.43 1628.38 1363.83 1624.35 1354.43 1708.95 1316.15 1745.21 1333.61 1643.82 1382.63 1631.74 1375.24 1623.68 1382.63 1613.61 1354.43"/><polygon class="cls-23" points="1863.39 1114.05 1921.13 1234.91 1970.15 1253.04 1894.27 1101.96 1863.39 1114.05"/><polygon class="cls-24" points="1859.22 1291.04 1970.15 1253.04 1921.13 1234.91 1848.81 1270.06 1859.22 1291.04"/><polygon class="cls-23" points="2004.39 1047.58 2075.56 1196.85 2129.28 1202.68 2045.35 1028.77 2004.39 1047.58"/><polygon class="cls-23" points="2075.56 1196.85 2145.39 1333.61 2208.51 1355.1 2129.28 1202.68 2075.56 1196.85"/><polygon class="cls-23" points="1936.6 1264.53 2008.42 1398.07 2055.42 1420.23 1980.22 1269.82 1957.39 1275.87 1948.86 1260.33 1936.6 1264.53"/><polygon class="cls-23" points="1863.39 1299.45 1947.32 1468.57 1899.64 1443.73 1835.53 1313.47 1863.39 1299.45"/><polygon class="cls-23" points="1731.78 1362.48 1796.91 1493.41 1835.53 1518.26 1751.93 1349.39 1731.78 1362.48"/><polygon class="cls-23" points="1651.21 1420.23 1727.08 1571.97 1710.3 1567.95 1641.81 1425.6 1651.21 1420.23"/><polygon class="cls-24" points="2061.46 1167.43 1970.15 1194.62 1947.32 1207.58 1970.15 1249.87 1998.18 1234.91 1992.31 1222.15 2075.56 1187.24 2061.46 1167.43"/><polygon class="cls-25" points="1446.42 1673.03 2145.39 1333.61 2208.51 1355.1 1451.79 1695.18 1446.42 1673.03"/><polygon class="cls-26" points="932.09 1062.35 1066.38 1007.96 1074.44 996.38 929.4 1056.42 932.09 1062.35"/><polygon class="cls-18" points="926.4 980.7 1060.69 926.31 1068.75 914.73 923.72 974.77 926.4 980.7"/><polygon class="cls-23" points="1009.98 1222.82 1145.44 1172.46 1140.24 1163.06 1016.69 1214.09 1009.98 1222.82"/><polygon class="cls-23" points="868.97 1279.89 881.06 1266.47 929.4 1246.32 934.78 1251.02 868.97 1279.89"/><polygon class="cls-23" points="1095.25 1378.6 1213.43 1326.9 1226.6 1344.35 1099.28 1397.4 1095.25 1378.6"/><polygon class="cls-23" points="958.28 1453.8 967.01 1430.3 1077.71 1384.64 1092.57 1401.43 958.28 1453.8"/><polygon class="cls-23" points="887.77 1163.06 991.18 1372.56 1040.19 1355.77 1040.19 1345.03 1136.88 1308.43 1102.64 1228.87 1038.18 1255.05 1034.15 1267.81 1025.42 1246.32 1035.49 1242.29 1035.49 1228.87 1021.91 1218.39 1009.98 1222.82 966.33 1133.18 958.28 1133.18 1009.98 1228.87 1021.39 1225.51 1028.11 1228.87 1025.42 1238.27 1016.02 1239.61 1032.14 1275.87 1102.64 1246.32 1126.81 1308.43 1033.48 1340.33 1034.82 1352.41 995.88 1362.15 894.49 1163.06 958.28 1138.22 947.53 1133.18 887.77 1163.06"/><polygon class="cls-27" points="932.09 1062.35 794.44 1112.7 958.28 1453.8 950.89 1453.8 785.72 1109.35 929.4 1056.42 932.09 1062.35"/><polyline class="cls-23" points="1066.38 1007.96 1213.43 1326.9 1226.6 1344.35 1066.38 1007.96"/><polygon class="cls-23" points="1687.13 249.9 1748.57 394.93 1717.85 414.06 1654.9 285.15 1687.13 249.9"/><polygon class="cls-23" points="1721.38 430.18 1784.16 572.19 1824.44 553.05 1753.61 397.95 1721.38 430.18"/><polygon class="cls-23" points="1523.97 336.51 1543.11 377.81 1533.54 377.81 1519.27 397.95 1502.32 367.23 1523.97 336.51"/><polygon class="cls-23" points="1506.85 414.06 1512.89 424.14 1539.08 391.91 1528.9 384.36 1506.85 414.06"/><polygon class="cls-23" points="1547.13 384.36 1585.41 467.44 1554.19 485.07 1522.96 414.06 1547.13 384.36"/><polygon class="cls-23" points="1543.11 523.85 1569.04 501.69 1562.91 485.07 1538.49 504.46 1543.11 523.85"/><polygon class="cls-23" points="1594.98 493.63 1657.58 633.21 1630.23 646.72 1569.04 513.77 1594.98 493.63"/><polygon class="cls-23" points="1401.1 384.36 1425.27 434.71 1410.16 454.35 1386.99 409.03 1401.1 384.36"/><polygon class="cls-23" points="1415.2 475.5 1443.4 535.93 1466.06 523.85 1428.47 449.32 1415.2 475.5"/><polygon class="cls-23" points="1440.63 566.15 1454.98 545 1461.53 562.12 1443.4 582.26 1440.63 566.15"/><polygon class="cls-23" points="1477.64 556.08 1506.15 617.51 1484.36 633.21 1460.63 572.19 1477.64 556.08"/><polygon class="cls-23" points="1487.71 650.75 1484.36 633.21 1506.15 617.51 1506.85 633.21 1512.89 634.63 1487.71 650.75"/><polygon class="cls-23" points="1543.11 684.99 1519.27 633.21 1498.62 650.75 1522.96 695.57 1543.11 684.99"/><polygon class="cls-23" points="1291.42 449.32 1318.34 504.46 1303.4 509.75 1284.26 471.47 1291.42 449.32"/><polygon class="cls-23" points="1281.43 523.85 1271.17 545 1276.3 551.04 1286.71 531.9 1281.43 523.85"/><polygon class="cls-23" points="1303.4 523.85 1312.97 540.97 1301.3 556.08 1295.34 539.96 1303.4 523.85"/><polygon class="cls-23" points="1301.3 563.63 1306.42 582.26 1318.34 563.63 1312.97 540.97 1301.3 563.63"/><polygon class="cls-23" points="1341.73 551.04 1365.17 607.44 1348.07 617.51 1331.48 570.18 1341.73 551.04"/><polygon class="cls-23" points="1341.73 622.55 1352.75 642.69 1341.73 654.27 1331.48 638.41 1341.73 622.55"/><polygon class="cls-23" points="1365.17 638.41 1383.65 673.91 1365.17 684.99 1352.75 654.27 1365.17 638.41"/><polygon class="cls-23" points="1396.18 664.39 1428.47 743.41 1411.5 752.89 1383.65 673.91 1396.18 664.39"/><polygon class="cls-23" points="1342.12 419.36 1331.48 449.32 1348.07 479.53 1359.02 449.32 1342.12 419.36"/><polygon class="cls-23" points="1555.19 615.5 1538.49 633.21 1555.19 679.96 1579.37 664.39 1555.19 615.5"/><polygon class="cls-23" points="1603.54 388.88 1575.5 419.36 1596.63 468.82 1630.23 454.35 1603.54 388.88"/><path class="cls-28" d="M785,227.74l67.38,269.45a21.7,21.7,0,0,1-1.24,14.1l-10.94,24.45a23.83,23.83,0,0,1-13.67,12.7L535.94,653.52,405,289.9l368.63-90.36Z"/><polygon class="cls-5" points="1493.04 979.37 1499.8 994.53 1519.27 985.47 1512.89 970.02 1493.04 979.37"/><polygon class="cls-5" points="1506.85 1007.29 1499.8 994.53 1519.27 985.47 1523.97 996.38 1530.01 999.23 1506.85 1007.29"/><polygon class="cls-5" points="1535.92 968.08 1545.46 989.03 1530.01 999.23 1523.97 996.38 1512.89 970.02 1530.01 971.03 1535.92 968.08"/><polygon class="cls-5" points="1562.91 991.17 1555.19 973.72 1538.49 973.72 1545.46 989.03 1562.91 991.17"/><polygon class="cls-5" points="1539.75 1004.27 1530.01 999.23 1545.46 989.03 1562.91 991.17 1539.75 1004.27"/><polygon class="cls-18" points="1392.03 935.84 1397.74 954.91 1410.16 946.86 1392.03 933.43 1392.03 935.84"/><polygon class="cls-5" points="1370.58 1064.77 1376.25 1075.78 1396.73 1070.27 1388.23 1056.42 1370.58 1064.77"/><polygon class="cls-5" points="1380.28 1085.85 1399.42 1081.82 1396.73 1070.27 1376.25 1075.78 1380.28 1085.85"/><polygon class="cls-5" points="1404.12 1044.55 1388.23 1056.42 1392.03 1054.63 1392.03 1044.55 1404.12 1044.55"/><polygon class="cls-5" points="1410.16 1070.27 1396.73 1070.27 1389.7 1055.32 1404.12 1044.55 1410.16 1070.27"/><polygon class="cls-5" points="1392.03 1013.67 1411.5 1013.67 1411.5 1029.11 1396.18 1034.31 1386.99 1016.52 1392.03 1013.67"/><polygon class="cls-5" points="1399.25 993.19 1411.5 1013.67 1392.03 1013.67 1383.65 999.23 1399.25 993.19"/><polygon class="cls-5" points="1693.51 906.57 1701.57 920.67 1677.82 920.67 1673.7 909.09 1693.51 906.57"/><polygon class="cls-5" points="1671.02 934.44 1701.57 920.67 1677.82 920.67 1657.58 933.42 1671.02 934.44"/><polygon class="cls-5" points="1673.7 909.09 1665.65 906.57 1671.69 920.67 1679.58 923.69 1673.7 909.09"/><polygon class="cls-5" points="1655.96 930.05 1671.69 920.67 1679.58 923.69 1671.02 934.44 1655.96 930.05"/><polygon class="cls-5" points="1659.94 903.55 1665.65 906.57 1671.69 920.67 1659.94 903.55"/><polygon class="cls-5" points="1652.89 923.69 1655.96 930.05 1671.69 920.67 1659.94 903.55 1651.21 916.8 1652.89 923.69"/><polygon class="cls-5" points="1824.44 836.4 1876.14 814.92 1884.03 820.96 1831.16 844.8 1824.44 836.4"/><polygon class="cls-5" points="1891.25 805.85 1876.14 814.92 1884.03 820.96 1897.97 814.92 1891.25 805.85"/><polygon class="cls-5" points="1841.31 820.96 1814.37 829.86 1824.44 836.4 1876.14 814.92 1872.45 808.74 1841.31 820.96"/><polygon class="cls-5" points="1803.96 814.92 1814.37 829.86 1782.81 847.15 1771.73 827 1803.96 814.92"/><polygon class="cls-5" points="1794.56 854.87 1784.16 844.8 1814.37 829.86 1824.44 836.4 1794.56 854.87"/><polygon class="cls-29" points="1331.48 884.92 1370.58 956.93 1359.8 956.93 1325.56 884.92 1331.48 884.92"/><polygon class="cls-30" points="1460.63 820.96 1519.27 941.32 1506.85 941.82 1449.44 822.98 1460.63 820.96"/><polygon class="cls-31" points="1600.22 752.89 1675.05 903.55 1659.94 903.55 1585.41 755.5 1600.22 752.89"/><polygon class="cls-32" points="1755.62 675.93 1821.09 808.74 1801.92 810.88 1738.5 684.99 1755.62 675.93"/><polygon class="cls-33" points="1066.38 1007.96 1226.6 1344.35 1225.85 1326.9 1074.44 996.38 1066.38 1007.96"/><polygon class="cls-34" points="1325.56 798.3 1824.44 553.05 1657.58 633.21 1579.37 664.39 1335.63 781.24 1325.56 798.3"/><polygon class="cls-35" points="1396.18 1563.92 1563.92 1889.57 1543.11 1906.69 1359.8 1563.92 1383.65 1542.77 1396.18 1563.92"/><polygon class="cls-20" points="1563.92 1889.57 1568.62 1880.84 1393.37 1542.77 1383.65 1542.77 1563.92 1889.57"/><polygon class="cls-36" points="1764.18 203.64 1891.62 486.52 1935.15 462.84 1814.06 186.29 1764.18 203.64"/><polygon class="cls-18" points="1900.25 283.01 2027.68 565.89 2071.21 542.21 1950.12 265.66 1900.25 283.01"/><polygon class="cls-37" points="1886.55 282.22 1802.96 324.06 1853.46 276.27 1935.15 239.36 1886.55 282.22"/><polygon class="cls-36" points="1886.55 282.22 1890.09 289.36 1935.15 247.01 1935.15 239.36 1886.55 282.22"/><polygon class="cls-36" points="1890.09 289.36 1809.98 330.18 1802.96 324.06 1884.48 283.25 1890.09 289.36"/><polygon class="cls-38" points="2202.18 816.37 2086.53 561.15 2047.07 550.26 2164.76 807.31 2202.18 816.37"/><polygon class="cls-38" points="1983.75 580.2 2036.62 554.51 2152.52 812.34 2094.01 816.37 1983.75 580.2"/><polygon class="cls-38" points="2182.45 828.51 2274.97 1021.15 2257.28 1044.4 2146.24 818.99 2182.45 828.51"/><polygon class="cls-39" points="2082.45 827.83 2178.37 1039.41 2237.56 1042.48 2134.15 818.99 2082.45 827.83"/></g><g id="stroke"><rect class="cls-18" width="2551.18" height="2069.29"/></g></g></svg>