<?xml version="1.0" encoding="utf-8"?>
<svg width="700" height="700" viewBox="-3075.556 -2789.159 3480.68 3068.968" xmlns="http://www.w3.org/2000/svg"
    xmlns:xlink="http://www.w3.org/1999/xlink">
    <path
        d="m 0,0 c 0.629,0.858 0.973,1.982 1.03,3.375 0.018,0.19 0.028,0.467 0.028,0.829 0,3.662 -1.354,5.492 -4.061,5.492 -1.297,0 -2.294,-0.425 -2.99,-1.272 C -6.689,7.575 -7.056,6.568 -7.094,5.406 -7.113,5.196 -7.123,4.824 -7.123,4.29 c 0,-0.515 0.01,-0.877 0.029,-1.087 0.038,-1.221 0.396,-2.273 1.073,-3.16 0.676,-0.887 1.683,-1.33 3.018,-1.33 1.373,0 2.374,0.429 3.003,1.287 m -7.18,-1.345 v -1.229 c 0,-0.192 -0.062,-0.349 -0.186,-0.473 -0.124,-0.124 -0.281,-0.185 -0.471,-0.185 h -1.202 c -0.19,0 -0.348,0.061 -0.472,0.185 -0.124,0.124 -0.186,0.281 -0.186,0.473 v 18.992 c 0,0.21 0.062,0.372 0.186,0.486 0.124,0.115 0.282,0.172 0.472,0.172 h 1.288 c 0.19,0 0.347,-0.062 0.471,-0.185 0.124,-0.125 0.186,-0.283 0.186,-0.473 V 9.811 c 1.068,1.411 2.613,2.117 4.634,2.117 2.002,0 3.504,-0.654 4.505,-1.96 C 3.046,8.662 3.575,7.026 3.633,5.062 3.651,4.853 3.661,4.566 3.661,4.204 3.661,3.842 3.651,3.556 3.633,3.347 3.575,1.382 3.046,-0.253 2.045,-1.56 1.044,-2.865 -0.458,-3.519 -2.46,-3.519 c -2.06,0 -3.633,0.725 -4.72,2.174"
        style="fill:#ffffff;fill-opacity:1;fill-rule:nonzero;stroke:none" id="path3324" />
</svg>